<svg xmlns="http://www.w3.org/2000/svg" viewBox="0 0 700 350">
  <defs>
    <linearGradient id="champagneGold" gradientUnits="userSpaceOnUse" x1="60" y1="44" x2="640" y2="282">
      <stop offset="0%" stop-color="#FFF0B3"/>
      <stop offset="35%" stop-color="#E7B84A"/>
      <stop offset="65%" stop-color="#C88A1A"/>
      <stop offset="100%" stop-color="#F6D77A"/>
    </linearGradient>
  </defs>
  <g transform="translate(10 10)">
    <path fill="none" stroke="url(#champagneGold)" stroke-width="28" stroke-linecap="round" stroke-linejoin="round"
      d="M418 102 C442 74 476 60 512 60 C572 60 620 106 620 166 C620 226 572 270 512 270 C452 270 422 234 397 194 C384 172 370 152 352 152 C330 152 306 174 283 189 C246 213 206 264 150 264 C92 264 60 224 60 180 C60 130 100 94 150 94 C200 94 232 130 258 160 C270 174 290 180 308 170"/>
    <path fill="url(#champagneGold)" stroke="url(#champagneGold)" stroke-width="3" stroke-linejoin="round" d="M497 177.5 L566 130 L507 188.5 Z"/>
    <circle cx="502" cy="183" r="13" fill="url(#champagneGold)"/>
  </g>
</svg>